<svg width="400" height="400" viewBox="0 0 400 400" xmlns="http://www.w3.org/2000/svg">
  <defs>
    <filter id="softShadow">
      <feGaussianBlur in="SourceGraphic" stdDeviation="4"/>
    </filter>
  </defs>
  
  <!-- Transparent background -->
  <rect x="0" y="0" width="400" height="400" fill="none"/>
  
  <!-- Frame: 1px black stroke with white interior -->
  <rect x="30" y="30" width="340" height="340" fill="white" stroke="#000000" stroke-width="1"/>
  
  <!-- DCTB Interlaced Serif Monogram based on reference -->
  
  <!-- Letter D (back layer, green) -->
  <path d="M120 140
           L120 260
           L155 260
           C175 260 190 255 200 245
           C210 235 215 220 215 200
           L215 180
           C215 160 210 145 200 135
           C190 125 175 120 155 120
           L120 120
           L118 120
           L118 123
           L118 140
           Z
           M135 135
           L155 135
           C168 135 178 138 185 144
           C192 150 195 160 195 173
           L195 207
           C195 220 192 230 185 236
           C178 242 168 245 155 245
           L135 245
           Z" 
        fill="#A7C957" stroke="#A7C957" stroke-width="0.5"/>
  
  <!-- Letter C (middle layer, green, interlacing with D) -->
  <path d="M175 120
           C155 120 140 125 130 135
           C120 145 115 160 115 180
           L115 200
           C115 220 120 235 130 245
           C140 255 155 260 175 260
           L200 260
           L200 245
           L175 245
           C162 245 152 242 145 236
           C138 230 135 220 135 207
           L135 173
           C135 160 138 150 145 144
           C152 138 162 135 175 135
           L200 135
           L200 120
           Z" 
        fill="#A7C957" stroke="#A7C957" stroke-width="0.5"/>
  
  <!-- Letter T (front layer, pink, crossbar interlacing) -->
  <path d="M210 120
           L210 135
           L235 135
           L235 260
           L250 260
           L250 135
           L275 135
           L275 120
           Z
           M235 118
           L235 122
           L250 122
           L250 118
           Z" 
        fill="#E63973" stroke="#E63973" stroke-width="0.5"/>
  
  <!-- Letter B (front right, pink, with proper serif bowls) -->
  <path d="M280 120
           L280 260
           L315 260
           C330 260 340 255 347 245
           C354 235 357 222 357 207
           C357 197 355 188 351 181
           C347 174 341 169 333 166
           C341 163 347 158 351 151
           C355 144 357 135 357 124
           C357 109 354 96 347 86
           C340 76 330 71 315 71
           L280 71
           L278 71
           L278 74
           L278 120
           Z
           M295 135
           L315 135
           C322 135 327 137 330 141
           C333 145 335 151 335 159
           L335 175
           C335 183 333 189 330 193
           C327 197 322 199 315 199
           L295 199
           Z
           M295 214
           L315 214
           C322 214 327 216 330 220
           C333 224 335 230 335 238
           L335 245
           C335 253 333 259 330 263
           C327 267 322 269 315 269
           L295 269
           Z" 
        fill="#E63973" stroke="#E63973" stroke-width="0.5"/>
  
  <!-- Soft elliptical shadow under monogram -->
  <ellipse cx="200" cy="275" rx="75" ry="10" fill="#E63973" opacity="0.10" filter="url(#softShadow)"/>
  
  <!-- Typography -->
  <text x="200" y="310" 
        text-anchor="middle" 
        font-family="Montserrat, sans-serif" 
        font-size="16" 
        font-weight="600" 
        letter-spacing="2.5px" 
        fill="#000000">DESIGN CONSULTANTS</text>
  
  <text x="200" y="330" 
        text-anchor="middle" 
        font-family="Montserrat, sans-serif" 
        font-size="11" 
        font-weight="500" 
        letter-spacing="2px" 
        fill="#000000">OF TAMPA BAY</text>
</svg>
